<?xml version="1.0" encoding="UTF-8"?>
<svg xmlns="http://www.w3.org/2000/svg" xmlns:xlink="http://www.w3.org/1999/xlink" viewBox="0 0 40 40" width="40px" height="40px">
<g id="surface23485226">
<path style=" stroke:none;fill-rule:nonzero;fill:rgb(19.607843%,52.549022%,84.313726%);fill-opacity:1;" d="M 20 28.898438 C 8.597656 28.898438 0 25.171875 0 20 C 0 14.828125 8.597656 11 20 11 C 31.402344 11 40 14.828125 40 20 C 40 25.171875 31.402344 28.898438 20 28.898438 Z M 20 13.933594 C 10.269531 13.933594 2.875 17.199219 2.875 20.0625 C 2.875 22.929688 10.269531 26.066406 20 26.066406 C 29.730469 26.066406 37.125 22.800781 37.125 19.9375 C 37.125 17.070312 29.730469 13.933594 20 13.933594 Z M 20 13.933594 "/>
<path style=" stroke:none;fill-rule:nonzero;fill:rgb(19.607843%,52.549022%,84.313726%);fill-opacity:1;" d="M 12.402344 38 C 11.472656 38 10.621094 37.785156 9.875 37.359375 C 8.652344 36.660156 7.777344 35.429688 7.34375 33.796875 C 6.195312 29.515625 8.046875 22.3125 12.054688 15.453125 C 16.761719 7.40625 23.007812 2.003906 27.597656 2.003906 C 28.527344 2.003906 29.378906 2.21875 30.125 2.644531 C 31.34375 3.339844 32.21875 4.570312 32.65625 6.203125 C 33.804688 10.484375 31.953125 17.6875 27.941406 24.546875 C 23.242188 32.59375 16.996094 38 12.402344 38 Z M 27.597656 5.003906 C 24.710938 5.003906 19.191406 9.195312 14.644531 16.964844 C 10.523438 24.023438 9.3125 29.875 10.242188 33.019531 C 10.492188 33.867188 10.847656 34.457031 11.363281 34.753906 C 13.722656 36.101562 20.171875 31.902344 25.351562 23.035156 C 29.476562 15.976562 30.8125 10.25 29.757812 6.980469 C 29.488281 6.140625 29.15625 5.546875 28.640625 5.253906 C 28.347656 5.085938 28.007812 5.003906 27.597656 5.003906 Z M 27.597656 5.003906 "/>
<path style=" stroke:none;fill-rule:nonzero;fill:rgb(19.607843%,52.549022%,84.313726%);fill-opacity:1;" d="M 27.597656 37.996094 C 23.003906 37.996094 16.757812 32.59375 12.054688 24.546875 C 8.046875 17.6875 6.195312 10.484375 7.34375 6.203125 C 7.777344 4.570312 8.652344 3.339844 9.871094 2.644531 C 10.621094 2.214844 11.472656 2 12.398438 2 C 16.996094 2 23.238281 7.40625 27.941406 15.453125 C 31.953125 22.3125 33.800781 29.515625 32.65625 33.796875 C 32.21875 35.429688 31.34375 36.660156 30.125 37.355469 C 29.378906 37.78125 28.527344 37.996094 27.597656 37.996094 Z M 12.398438 5 C 11.992188 5 11.652344 5.082031 11.359375 5.246094 C 10.84375 5.542969 10.484375 6.128906 10.238281 6.980469 C 9.3125 10.1875 10.519531 15.980469 14.644531 23.035156 C 19.183594 30.804688 24.707031 34.996094 27.597656 34.996094 C 28.007812 34.996094 28.347656 34.914062 28.640625 34.746094 C 29.152344 34.457031 29.523438 33.871094 29.757812 33.019531 C 30.625 29.875 29.476562 24.019531 25.351562 16.964844 C 20.8125 9.195312 15.289062 5 12.398438 5 Z M 12.398438 5 "/>
<path style=" stroke:none;fill-rule:nonzero;fill:rgb(19.607843%,52.549022%,84.313726%);fill-opacity:1;" d="M 23.5 20 C 23.5 21.933594 21.933594 23.5 20 23.5 C 18.066406 23.5 16.5 21.933594 16.5 20 C 16.5 18.066406 18.066406 16.5 20 16.5 C 21.933594 16.5 23.5 18.066406 23.5 20 Z M 23.5 20 "/>
<path style=" stroke:none;fill-rule:nonzero;fill:rgb(19.607843%,52.549022%,84.313726%);fill-opacity:1;" d="M 20 24 C 17.792969 24 16 22.207031 16 20 C 16 17.792969 17.792969 16 20 16 C 22.207031 16 24 17.792969 24 20 C 24 22.207031 22.207031 24 20 24 Z M 20 17 C 18.347656 17 17 18.347656 17 20 C 17 21.652344 18.347656 23 20 23 C 21.652344 23 23 21.652344 23 20 C 23 18.347656 21.652344 17 20 17 Z M 20 17 "/>
<path style=" stroke:none;fill-rule:nonzero;fill:rgb(19.607843%,52.549022%,84.313726%);fill-opacity:1;" d="M 20 28.066406 C 9.347656 28.066406 1 24.523438 1 20 C 1 15.476562 9.347656 11.933594 20 11.933594 C 30.652344 11.933594 39 15.476562 39 20 C 39 24.523438 30.652344 28.066406 20 28.066406 Z M 20 12.933594 C 10.242188 12.933594 2 16.167969 2 20 C 2 23.832031 10.242188 27.066406 20 27.066406 C 29.757812 27.066406 38 23.832031 38 20 C 38 16.167969 29.757812 12.933594 20 12.933594 Z M 20 12.933594 "/>
<path style=" stroke:none;fill-rule:nonzero;fill:rgb(19.607843%,52.549022%,84.313726%);fill-opacity:1;" d="M 12.402344 37 C 11.648438 37 10.964844 36.828125 10.367188 36.488281 C 9.371094 35.921875 8.679688 34.925781 8.308594 33.535156 C 7.226562 29.5 9.035156 22.597656 12.917969 15.957031 C 17.378906 8.328125 23.414062 3.003906 27.597656 3.003906 C 28.351562 3.003906 29.035156 3.175781 29.632812 3.515625 C 30.625 4.082031 31.320312 5.074219 31.691406 6.460938 C 32.773438 10.5 30.964844 17.398438 27.078125 24.042969 C 22.621094 31.671875 16.585938 37 12.402344 37 Z M 27.597656 4.003906 C 23.816406 4.003906 18.003906 9.242188 13.78125 16.460938 C 10.085938 22.785156 8.273438 29.542969 9.273438 33.277344 C 9.574219 34.402344 10.109375 35.1875 10.867188 35.621094 C 11.308594 35.871094 11.824219 36 12.402344 36 C 16.1875 36 21.996094 30.761719 26.214844 23.539062 C 29.910156 17.214844 31.726562 10.453125 30.722656 6.722656 C 30.425781 5.601562 29.890625 4.8125 29.132812 4.382812 C 28.691406 4.132812 28.175781 4.003906 27.597656 4.003906 Z M 27.597656 4.003906 "/>
<path style=" stroke:none;fill-rule:nonzero;fill:rgb(19.607843%,52.549022%,84.313726%);fill-opacity:1;" d="M 27.597656 36.996094 C 23.410156 36.996094 17.375 31.671875 12.917969 24.042969 C 9.035156 17.402344 7.226562 10.5 8.308594 6.464844 C 8.679688 5.074219 9.371094 4.078125 10.371094 3.511719 C 10.964844 3.171875 11.648438 3 12.398438 3 C 16.585938 3 22.621094 8.328125 27.078125 15.957031 C 30.960938 22.597656 32.769531 29.5 31.6875 33.539062 C 31.316406 34.925781 30.625 35.917969 29.628906 36.484375 C 29.035156 36.824219 28.351562 36.996094 27.597656 36.996094 Z M 12.398438 4 C 11.824219 4 11.304688 4.128906 10.863281 4.378906 C 10.109375 4.8125 9.574219 5.597656 9.273438 6.722656 C 8.273438 10.453125 10.085938 17.214844 13.78125 23.539062 C 18 30.757812 23.8125 35.996094 27.597656 35.996094 C 28.175781 35.996094 28.695312 35.867188 29.136719 35.617188 C 29.890625 35.1875 30.425781 34.398438 30.722656 33.277344 C 31.722656 29.542969 29.910156 22.785156 26.214844 16.460938 C 21.996094 9.242188 16.1875 4 12.398438 4 Z M 12.398438 4 "/>
</g>
</svg>
